<!-- Simple Icons (CC0-1.0) https://simpleicons.org/  Viber -->
<svg xmlns="http://www.w3.org/2000/svg" viewBox="0 0 24 24" role="img"><path fill="#7360F2" d="M11.4 0C9.473 0 6.501.034 4.806 1.372a6.874 6.874 0 0 0-2.4 2.281C1.3 5.333.9 7.08.9 9.639v2.4c0 2.567.402 4.318 1.506 5.986a7.073 7.073 0 0 0 2.427 2.277c1.698 1.338 4.67 1.372 6.567 1.372h.034c1.897 0 4.869-.034 6.567-1.372a7.08 7.08 0 0 0 2.427-2.277c1.104-1.668 1.506-3.419 1.506-5.986v-2.4c0-2.559-.4-4.306-1.506-5.986A6.874 6.874 0 0 0 19.994 1.37C18.299.032 15.327 0 13.4 0h-2zm.852 2.057h.192c1.716 0 4.248.027 5.486 1.005.746.598 1.213 1.424 1.482 2.784.27 1.36.405 3.19.405 5.793v2.006c0 2.598-.135 4.428-.405 5.788-.27 1.36-.736 2.186-1.482 2.784-1.238.978-3.77 1.005-5.486 1.005h-.204c-1.716 0-4.212-.027-5.45-1.005-.746-.598-1.214-1.424-1.483-2.784-.27-1.36-.405-3.19-.405-5.788V11.64c0-2.603.135-4.433.405-5.793.27-1.36.737-2.186 1.483-2.784 1.238-.978 3.734-1.005 5.45-1.005z"/></svg>
