<!-- Simple Icons (CC0-1.0) https://simpleicons.org/  VK -->
<svg xmlns="http://www.w3.org/2000/svg" viewBox="0 0 24 24" role="img"><path fill="#0077FF" d="M15.684 0H8.316C1.592 0 0 1.592 0 8.316v7.368C0 22.408 1.592 24 8.316 24h7.368C22.408 24 24 22.408 24 15.684V8.316C24 1.592 22.391 0 15.684 0zm3.692 17.123h-1.744c-.66 0-.864-.525-2.05-1.727-1.033 1-1.208 1.16-1.89 1.16-.555 0-.756-.265-.756-.759v-3.528c0-.475.078-.593.635-.593h1.602c.475 0 .612.097.612.631v2.713c0 .133.067.205.205.205.17 0 .33-.109.525-.291 1.705-1.912 2.293-2.74 2.293-3.527 0-.725-.45-1.104-1.238-1.104h-4.584c-.133 0-.218.021-.218.165v1.031c0 .133.085.165.218.165h1.239c.582 0 .764.291.764.656 0 .378-.238.819-.971 1.736-1.229 1.551-1.764 2.078-2.293 2.078-.631 0-.963-.378-.963-1.238V9.859c0-.864.291-1.238 1.238-1.238h2.391c.864 0 1.238.374 1.238 1.238v6.265c0 .864-.374 1.238-1.238 1.238h-.631z"/></svg>
